<svg xmlns="http://www.w3.org/2000/svg" viewBox="0 0 256 256" role="img" aria-label="Vibe Coder Marketplace">
  <defs>
    <linearGradient id="bg" x1="0" y1="0" x2="1" y2="1">
      <stop offset="0" stop-color="#05050A"/>
      <stop offset=".55" stop-color="#11111A"/>
      <stop offset="1" stop-color="#171339"/>
    </linearGradient>
    <linearGradient id="gold" x1="0" y1="0" x2="1" y2="1">
      <stop offset="0" stop-color="#FFF7B8"/>
      <stop offset=".42" stop-color="#FFD84A"/>
      <stop offset=".72" stop-color="#FFB020"/>
      <stop offset="1" stop-color="#FFF0A3"/>
    </linearGradient>
    <filter id="glow" x="-50%" y="-50%" width="200%" height="200%">
      <feGaussianBlur stdDeviation="8" result="blur"/>
      <feColorMatrix in="blur" type="matrix" values="1 0 0 0 1 0 .55 0 0 .76 0 0 .2 0 0 0 0 0 .8 0"/>
      <feMerge>
        <feMergeNode/>
        <feMergeNode in="SourceGraphic"/>
      </feMerge>
    </filter>
  </defs>
  <rect x="10" y="10" width="236" height="236" rx="50" fill="url(#bg)"/>
  <rect x="14" y="14" width="228" height="228" rx="46" fill="none" stroke="#FFD84A" stroke-opacity=".5" stroke-width="7"/>
  <path d="M71 68 L127 194 L187 68" fill="none" stroke="#00E5FF" stroke-opacity=".32" stroke-width="48" stroke-linecap="round" stroke-linejoin="round"/>
  <path d="M71 68 L127 194 L187 68" fill="none" stroke="#A855F7" stroke-opacity=".3" stroke-width="62" stroke-linecap="round" stroke-linejoin="round"/>
  <path d="M71 68 L127 194 L187 68" fill="none" stroke="#7A4200" stroke-width="39" stroke-linecap="round" stroke-linejoin="round"/>
  <path d="M71 68 L127 194 L187 68" fill="none" stroke="url(#gold)" stroke-width="27" stroke-linecap="round" stroke-linejoin="round" filter="url(#glow)"/>
  <path d="M191 34 L202 63 L231 74 L202 85 L191 114 L180 85 L151 74 L180 63 Z" fill="#FFF7B8"/>
  <circle cx="191" cy="74" r="7" fill="#FFB020"/>
  <circle cx="61" cy="187" r="9" fill="#00E5FF" opacity=".9"/>
</svg>
